# xmcd CD database file
# Copyright (C) 1995 Ti Kan
#
# Track frame offsets:
#	150
#	14925
#	40160
#	54457
#	64190
#	90105
#	122322
#	141247
#	156692
#	178035
#	190697
#
# Disc length: 2988 seconds
#
# Revision: 1
# Processed by: cddbd v1.4b41PL1 Copyright (c) Steve Scherf et al.
# Submitted via: xmcd 1.4
#
DISCID=940baa0b
DTITLE=The Smokin' Joe Kubek Band - Texas Cadillac
DYEAR=1900
DGENRE=
TTITLE0=Mellow Down Easy
TTITLE1=Still A Fool
TTITLE2=Seems Like A Million Years
TTITLE3=Show You What They Say
TTITLE4=TV Light
TTITLE5=Mean Old World
TTITLE6=Texas Cadillac
TTITLE7=Where Can You Be
TTITLE8=Little Red Rooster
TTITLE9=No Time
TTITLE10=Must Have Missed A Turn Somewhere
EXTD=
EXTT0=
EXTT1=
EXTT2=
EXTT3=
EXTT4=
EXTT5=
EXTT6=
EXTT7=
EXTT8=
EXTT9=
EXTT10=
PLAYORDER=
